HIERARCHY
ROOT Pelvis
{
	OFFSET 0.000000 0.000000 0.000000
	CHANNELS 6 Xposition Yposition Zposition Xrotation Yrotation Zrotation
	JOINT LeftUpLeg_virtual
	{
		OFFSET 0.000000 0.000000 0.000000
		CHANNELS 3 Xrotation Yrotation Zrotation
		JOINT LeftUpLeg
		{
			OFFSET 18.735201 -5.666702 -4.541200
			CHANNELS 3 Xrotation Yrotation Zrotation
			JOINT LeftLeg
			{
				OFFSET -0.021200 -31.938179 0.493100
				CHANNELS 3 Xrotation Yrotation Zrotation
				JOINT LeftFoot
				{
					OFFSET 0.021200 -31.938179 -4.336299
					CHANNELS 3 Xrotation Yrotation Zrotation
					JOINT LeftToeBase
					{
						OFFSET 0.943001 -26.722000 15.023500
						CHANNELS 3 Xrotation Yrotation Zrotation
						End Site
						{
							OFFSET 0 0 0
						}
					}
				}
			}
		}
	}
	JOINT RightUpLeg_virtual
	{
		OFFSET 0.000000 0.000000 0.000000
		CHANNELS 3 Xrotation Yrotation Zrotation
		JOINT RightUpLeg
		{
			OFFSET -18.735201 -5.666702 -4.541200
			CHANNELS 3 Xrotation Yrotation Zrotation
			JOINT RightLeg
			{
				OFFSET 0.018946 -31.938133 0.493100
				CHANNELS 3 Xrotation Yrotation Zrotation
				JOINT RightFoot
				{
					OFFSET -0.018946 -31.938126 -4.336299
					CHANNELS 3 Xrotation Yrotation Zrotation
					JOINT RightToeBase
					{
						OFFSET -0.943001 -26.722004 15.023500
						CHANNELS 3 Xrotation Yrotation Zrotation
						End Site
						{
							OFFSET 0 0 0
						}
					}
				}
			}
		}
	}
	JOINT Hips_virtual
	{
		OFFSET 0.000000 0.000000 0.000000
		CHANNELS 3 Xrotation Yrotation Zrotation
		JOINT Hips
		{
			OFFSET -0.000000 -0.000000 -0.000000
			CHANNELS 3 Xrotation Yrotation Zrotation
			JOINT Spine
			{
				OFFSET 0.000000 10.199997 -0.299500
				CHANNELS 3 Xrotation Yrotation Zrotation
				JOINT Spine1
				{
					OFFSET 0.000000 11.900002 -1.516600
					CHANNELS 3 Xrotation Yrotation Zrotation
					JOINT Spine2
					{
						OFFSET 0.000000 13.600006 -2.842500
						CHANNELS 3 Xrotation Yrotation Zrotation
						JOINT Neck_virtual
						{
							OFFSET 0.000000 0.000000 0.000000
							CHANNELS 3 Xrotation Yrotation Zrotation
							JOINT Neck
							{
								OFFSET 0.000000 9.624100 -2.890100
								CHANNELS 3 Xrotation Yrotation Zrotation
								JOINT Head
								{
									OFFSET 0.000000 14.068802 -1.351900
									CHANNELS 3 Xrotation Yrotation Zrotation
									End Site
									{
										OFFSET 0 0 0
									}
								}
							}
						}
						JOINT LeftShoulder_virtual
						{
							OFFSET 0.000000 0.000000 0.000000
							CHANNELS 3 Xrotation Yrotation Zrotation
							JOINT LeftShoulder
							{
								OFFSET 15.263000 10.923401 -0.547700
								CHANNELS 3 Xrotation Yrotation Zrotation
								JOINT LeftArm
								{
									OFFSET 25.438599 -2.830597 -13.032500
									CHANNELS 3 Xrotation Yrotation Zrotation
									JOINT LeftForeArm
									{
										OFFSET 29.960503 0.000000 0.000000
										CHANNELS 3 Xrotation Yrotation Zrotation
										JOINT LeftHand
										{
											OFFSET 27.849251 0.000000 0.000000
											CHANNELS 3 Xrotation Yrotation Zrotation
											End Site
											{
												OFFSET 0 0 0
											}
										}
									}
								}
							}
						}
						JOINT RightShoulder_virtual
						{
							OFFSET 0.000000 0.000000 0.000000
							CHANNELS 3 Xrotation Yrotation Zrotation
							JOINT RightShoulder
							{
								OFFSET -15.263000 10.923401 -0.547700
								CHANNELS 3 Xrotation Yrotation Zrotation
								JOINT RightArm
								{
									OFFSET -25.438599 -2.830597 -13.032500
									CHANNELS 3 Xrotation Yrotation Zrotation
									JOINT RightForeArm
									{
										OFFSET -29.960503 0.000000 0.000000
										CHANNELS 3 Xrotation Yrotation Zrotation
										JOINT RightHand
										{
											OFFSET -27.849251 0.000000 0.000000
											CHANNELS 3 Xrotation Yrotation Zrotation
											End Site
											{
												OFFSET 0 0 0
											}
										}
									}
								}
							}
						}
					}
				}
			}
		}
	}
}
MOTION
Frames: 10
Frame Time: 0.03333333
1.781128 40.048462 -7.065870 0.000000 0.000000 0.000000 11.523795 -19.352313 5.257162 -27.067237 5.589670 19.509454 101.129960 -3.467590 -4.834082 35.394098 -3.549551 -15.201397 0.000000 0.000000 0.000000 6.282222 10.742167 -2.520028 -21.816900 -1.458139 -16.318440 95.949084 3.855612 0.658298 30.822383 4.948706 17.641216 0.000000 0.000000 0.000000 0.605793 -1.347454 0.506594 6.563815 9.341372 -0.581792 3.696452 0.240806 -0.279762 0.069404 0.625972 0.246652 0.000000 0.000000 0.000000 2.379250 0.323223 0.033559 -0.738104 0.032229 -0.054918 0.000000 0.000000 0.000000 0.750706 0.736640 -1.923438 -0.263187 -3.990427 -15.093096 5.009336 -6.051546 -51.041314 5.789109 -34.861419 -2.015867 0.000000 0.000000 0.000000 1.589914 0.361125 2.195106 -0.694568 7.902496 15.669810 5.282642 0.691833 49.580309 3.971921 33.330463 2.319159 0.000000 0.000000 0.000000 
1.641732 40.083572 -7.160448 0.000000 0.000000 0.000000 11.594045 -19.646961 5.295744 -26.945387 5.518372 19.474196 101.570514 -3.426273 -4.906537 35.713635 -3.479259 -15.254632 0.000000 0.000000 0.000000 6.260939 10.880896 -2.492182 -21.788116 -1.419820 -16.249068 96.205154 3.926911 0.599354 30.993438 5.082127 17.631654 0.000000 0.000000 0.000000 0.631324 -1.492119 0.497536 6.680244 9.323170 -0.700072 3.603175 0.183648 -0.300515 -0.001027 0.621454 0.262072 0.000000 0.000000 0.000000 2.409208 0.311078 0.039214 -0.727271 0.026176 -0.056906 0.000000 0.000000 0.000000 0.744237 0.721202 -1.923917 -0.254100 -4.019547 -15.154255 5.040186 -5.938006 -51.048629 5.798963 -34.762217 -2.028016 0.000000 0.000000 0.000000 1.582274 0.389924 2.202534 -0.678814 7.932028 15.761228 5.183863 0.657499 49.668699 3.915460 33.409423 2.357519 0.000000 0.000000 0.000000 
1.398490 40.146374 -7.329073 0.000000 0.000000 0.000000 11.732430 -20.183989 5.372844 -26.718066 5.388991 19.416780 102.361948 -3.354326 -5.029281 36.286131 -3.358436 -15.341645 0.000000 0.000000 0.000000 6.226517 11.132112 -2.437705 -21.732943 -1.352381 -16.119581 96.675126 4.055765 0.479169 31.303133 5.330718 17.595197 0.000000 0.000000 0.000000 0.680523 -1.766603 0.486528 6.898897 9.306929 -0.903399 3.433353 0.082968 -0.338034 -0.125440 0.611230 0.288486 0.000000 0.000000 0.000000 2.466509 0.289060 0.049081 -0.706310 0.013844 -0.061528 0.000000 0.000000 0.000000 0.736760 0.693813 -1.923298 -0.234835 -4.068275 -15.257587 5.102371 -5.729639 -51.065865 5.812216 -34.606704 -2.056736 0.000000 0.000000 0.000000 1.572227 0.442705 2.215753 -0.648475 7.979096 15.922293 4.991523 0.594945 49.841021 3.809899 33.558816 2.434150 0.000000 0.000000 0.000000 
1.106408 40.226234 -7.539265 0.000000 0.000000 0.000000 11.932261 -20.882508 5.487183 -26.414742 5.221630 19.356652 103.356847 -3.268902 -5.166738 37.002700 -3.219179 -15.432309 0.000000 0.000000 0.000000 6.189775 11.451808 -2.359589 -21.658494 -1.270495 -15.946434 97.286325 4.218337 0.297658 31.697658 5.660976 17.506980 0.000000 0.000000 0.000000 0.749865 -2.142242 0.483955 7.194490 9.322810 -1.146317 3.215597 -0.037522 -0.385327 -0.278304 0.594366 0.319393 0.000000 0.000000 0.000000 2.547268 0.261469 0.060614 -0.676347 -0.004584 -0.069738 0.000000 0.000000 0.000000 0.735081 0.660738 -1.919331 -0.204647 -4.119859 -15.375060 5.190409 -5.454733 -51.093647 5.816704 -34.460032 -2.107330 0.000000 0.000000 0.000000 1.567791 0.511495 2.231648 -0.605511 8.024603 16.116777 4.717417 0.511765 50.090620 3.666438 33.762267 2.549061 0.000000 0.000000 0.000000 
0.817884 40.315273 -7.758318 0.000000 0.000000 0.000000 12.179343 -21.664199 5.634751 -26.072222 5.034752 19.310451 104.396634 -3.187795 -5.283573 37.747553 -3.094682 -15.499187 0.000000 0.000000 0.000000 6.158273 11.791185 -2.262776 -21.577281 -1.189216 -15.749443 97.953266 4.386894 0.062262 32.117315 6.030159 17.348136 0.000000 0.000000 0.000000 0.834496 -2.578800 0.498234 7.536106 9.397067 -1.396818 2.983057 -0.150250 -0.434076 -0.435143 0.571931 0.349470 0.000000 0.000000 0.000000 2.647857 0.233965 0.070877 -0.638653 -0.027668 -0.082290 0.000000 0.000000 0.000000 0.742604 0.629565 -1.910248 -0.164857 -4.154170 -15.483108 5.283958 -5.139351 -51.125974 5.795618 -34.380935 -2.181979 0.000000 0.000000 0.000000 1.576274 0.587476 2.246232 -0.552146 8.049524 16.305335 4.381422 0.411002 50.410423 3.495797 33.997779 2.701735 0.000000 0.000000 0.000000 
0.566844 40.412685 -7.961291 0.000000 0.000000 0.000000 12.451457 -22.473655 5.807859 -25.727612 4.839525 19.285519 105.351249 -3.124829 -5.357062 38.427843 -3.009071 -15.528958 0.000000 0.000000 0.000000 6.134851 12.109162 -2.153271 -21.502848 -1.120104 -15.547066 98.594532 4.536624 -0.210284 32.509084 6.394542 17.115269 0.000000 0.000000 0.000000 0.928303 -3.028474 0.532041 7.893836 9.541960 -1.648170 2.766528 -0.230989 -0.476595 -0.579683 0.547536 0.376815 0.000000 0.000000 0.000000 2.765355 0.212371 0.077548 -0.594624 -0.052251 -0.099259 0.000000 0.000000 0.000000 0.757756 0.607182 -1.895461 -0.119436 -4.152384 -15.571658 5.342758 -4.800417 -51.150781 5.729230 -34.401061 -2.278503 0.000000 0.000000 0.000000 1.601499 0.662688 2.255833 -0.490358 8.040712 16.456694 4.011555 0.287481 50.791865 3.305957 34.241692 2.889195 0.000000 0.000000 0.000000 
0.365602 40.525002 -8.131987 0.000000 0.000000 0.000000 12.721546 -23.281139 5.995196 -25.411113 4.639465 19.278286 106.139432 -3.087615 -5.383071 38.988154 -2.971862 -15.526576 0.000000 0.000000 0.000000 6.121430 12.379976 -2.036504 -21.441202 -1.069983 -15.352175 99.145045 4.650814 -0.497187 32.832931 6.717712 16.821677 0.000000 0.000000 0.000000 1.023714 -3.443491 0.581731 8.245775 9.755101 -1.911254 2.589759 -0.264614 -0.507355 -0.705173 0.526096 0.403089 0.000000 0.000000 0.000000 2.896853 0.201192 0.079808 -0.545878 -0.073836 -0.119798 0.000000 0.000000 0.000000 0.776418 0.597898 -1.875431 -0.073913 -4.101600 -15.644243 5.310946 -4.446871 -51.156956 5.598001 -34.520374 -2.392670 0.000000 0.000000 0.000000 1.642830 0.730686 2.258446 -0.421759 7.993113 16.554683 3.641143 0.128932 51.221136 3.102964 34.472439 3.103553 0.000000 0.000000 0.000000 
0.211837 40.662357 -8.259403 0.000000 0.000000 0.000000 12.964012 -24.073316 6.183047 -25.140215 4.434114 19.277053 106.730421 -3.077380 -5.373935 39.410417 -2.978231 -15.510897 0.000000 0.000000 0.000000 6.124560 12.594117 -1.916101 -21.383120 -1.041939 -15.170045 99.562745 4.722877 -0.775853 33.063003 6.976383 16.491471 0.000000 0.000000 0.000000 1.111797 -3.787066 0.639478 8.582515 10.026051 -2.196553 2.467116 -0.247547 -0.523618 -0.811152 0.511428 0.431813 0.000000 0.000000 0.000000 3.038539 0.202343 0.078671 -0.494204 -0.087770 -0.142176 0.000000 0.000000 0.000000 0.795797 0.602481 -1.851056 -0.033419 -3.998300 -15.710692 5.130963 -4.086439 -51.143422 5.387247 -34.716779 -2.521914 0.000000 0.000000 0.000000 1.695838 0.786493 2.254472 -0.348030 7.908670 16.599562 3.303655 -0.079047 51.675633 2.893317 34.671994 3.330806 0.000000 0.000000 0.000000 
0.098082 40.833149 -8.334653 0.000000 0.000000 0.000000 13.161203 -24.842230 6.357574 -24.917637 4.223489 19.267096 107.134919 -3.090394 -5.350300 39.706366 -3.014275 -15.504956 0.000000 0.000000 0.000000 6.157993 12.753484 -1.793700 -21.302844 -1.037271 -14.999160 99.830584 4.754858 -1.029440 33.187312 7.161767 16.150677 0.000000 0.000000 0.000000 1.183505 -4.044249 0.696418 8.906953 10.343923 -2.499763 2.403077 -0.186298 -0.525021 -0.899352 0.504338 0.465981 0.000000 0.000000 0.000000 3.185594 0.214596 0.076501 -0.441212 -0.090794 -0.164064 0.000000 0.000000 0.000000 0.816598 0.618566 -1.823061 -0.001079 -3.848840 -15.777535 4.762026 -3.731872 -51.123737 5.092158 -34.960815 -2.667109 0.000000 0.000000 0.000000 1.753889 0.826564 2.246355 -0.271949 7.793960 16.604258 3.026965 -0.346854 52.123755 2.685839 34.824846 3.552215 0.000000 0.000000 0.000000 
0.017580 41.039669 -8.351320 0.000000 0.000000 0.000000 13.307111 -25.578988 6.508005 -24.734263 4.010486 19.236507 107.392369 -3.120254 -5.331574 39.907870 -3.064323 -15.526190 0.000000 0.000000 0.000000 6.239906 12.864340 -1.669453 -21.165295 -1.056951 -14.833940 99.954839 4.753626 -1.249275 33.207444 7.276725 15.819828 0.000000 0.000000 0.000000 1.232475 -4.225868 0.745287 9.227780 10.699321 -2.799423 2.393216 -0.093507 -0.512691 -0.971294 0.502235 0.506320 0.000000 0.000000 0.000000 3.333337 0.233851 0.075957 -0.387840 -0.082281 -0.183015 0.000000 0.000000 0.000000 0.842192 0.642103 -1.791718 0.022501 -3.666362 -15.841784 4.194726 -3.402702 -51.121937 4.720869 -35.227486 -2.830946 0.000000 0.000000 0.000000 1.809981 0.848998 2.237372 -0.198139 7.658350 16.587507 2.829397 -0.676185 52.529189 2.491700 34.916757 3.748002 0.000000 0.000000 0.000000 
